<mxfile host="app.diagrams.net" modified="2020-12-09T09:07:58.522Z" agent="5.0 (Windows)" etag="mt4prvXZ1ZX9tqBu0bdN" version="13.11.0" type="github">
  <diagram id="gGLhmtWaQ_1sETnwqy-W" name="Page-1">
    <mxGraphModel dx="732" dy="431" grid="0" gridSize="10" guides="1" tooltips="1" connect="1" arrows="1" fold="1" page="1" pageScale="1" pageWidth="400" pageHeight="300" math="1" shadow="0">
      <root>
        <mxCell id="0" />
        <mxCell id="1" parent="0" />
        <mxCell id="qYgW7eK_SSGqbQM5pQxQ-4" value="&lt;font style=&quot;font-size: 15px&quot;&gt;$$M(1)$$&lt;/font&gt;" style="text;html=1;align=center;verticalAlign=middle;resizable=0;points=[];autosize=1;" vertex="1" parent="1">
          <mxGeometry x="236" y="131" width="80" height="20" as="geometry" />
        </mxCell>
        <mxCell id="qYgW7eK_SSGqbQM5pQxQ-5" value="&lt;font style=&quot;font-size: 15px&quot;&gt;$$w_l$$&lt;/font&gt;" style="text;html=1;align=center;verticalAlign=middle;resizable=0;points=[];autosize=1;" vertex="1" parent="1">
          <mxGeometry x="51" y="51" width="70" height="20" as="geometry" />
        </mxCell>
        <mxCell id="qYgW7eK_SSGqbQM5pQxQ-6" value="&lt;div style=&quot;font-size: 15px&quot;&gt;&lt;font style=&quot;font-size: 15px&quot;&gt;$$M(1)_l^\perp$$&lt;/font&gt;&lt;/div&gt;" style="text;html=1;align=center;verticalAlign=middle;resizable=0;points=[];autosize=1;" vertex="1" parent="1">
          <mxGeometry x="171" y="61" width="130" height="20" as="geometry" />
        </mxCell>
        <mxCell id="qYgW7eK_SSGqbQM5pQxQ-11" value="" style="endArrow=classic;html=1;fillColor=#6C8EBF;jumpSize=12;rounded=0;strokeWidth=2;" edge="1" parent="1">
          <mxGeometry width="50" height="50" relative="1" as="geometry">
            <mxPoint x="71" y="121" as="sourcePoint" />
            <mxPoint x="331" y="121" as="targetPoint" />
          </mxGeometry>
        </mxCell>
        <mxCell id="qYgW7eK_SSGqbQM5pQxQ-12" value="" style="endArrow=classic;html=1;fillColor=#fa6800;jumpSize=12;rounded=0;strokeWidth=2;strokeColor=#0000CC;" edge="1" parent="1">
          <mxGeometry width="50" height="50" relative="1" as="geometry">
            <mxPoint x="71" y="121" as="sourcePoint" />
            <mxPoint x="161" y="21" as="targetPoint" />
          </mxGeometry>
        </mxCell>
        <mxCell id="qYgW7eK_SSGqbQM5pQxQ-13" value="" style="endArrow=classic;html=1;fillColor=#e51400;jumpSize=12;rounded=0;strokeWidth=2;strokeColor=#FF0000;" edge="1" parent="1">
          <mxGeometry width="50" height="50" relative="1" as="geometry">
            <mxPoint x="211" y="121" as="sourcePoint" />
            <mxPoint x="161" y="21" as="targetPoint" />
          </mxGeometry>
        </mxCell>
        <mxCell id="qYgW7eK_SSGqbQM5pQxQ-14" value="" style="endArrow=classic;html=1;fillColor=#6C8EBF;jumpSize=12;rounded=0;strokeWidth=2;" edge="1" parent="1">
          <mxGeometry width="50" height="50" relative="1" as="geometry">
            <mxPoint x="71" y="121" as="sourcePoint" />
            <mxPoint x="242" y="239" as="targetPoint" />
          </mxGeometry>
        </mxCell>
        <mxCell id="qYgW7eK_SSGqbQM5pQxQ-15" value="&lt;font style=&quot;font-size: 15px&quot;&gt;$$M(2)$$&lt;/font&gt;" style="text;html=1;align=center;verticalAlign=middle;resizable=0;points=[];autosize=1;" vertex="1" parent="1">
          <mxGeometry x="84" y="179" width="80" height="20" as="geometry" />
        </mxCell>
        <mxCell id="qYgW7eK_SSGqbQM5pQxQ-16" value="" style="endArrow=classic;html=1;fillColor=#6C8EBF;jumpSize=12;rounded=0;strokeWidth=2;strokeColor=#FF0000;" edge="1" parent="1">
          <mxGeometry width="50" height="50" relative="1" as="geometry">
            <mxPoint x="178" y="193" as="sourcePoint" />
            <mxPoint x="161" y="21" as="targetPoint" />
          </mxGeometry>
        </mxCell>
        <mxCell id="qYgW7eK_SSGqbQM5pQxQ-17" value="&lt;div style=&quot;font-size: 15px&quot;&gt;&lt;font style=&quot;font-size: 15px&quot;&gt;$$M(2)_l^\perp$$&lt;/font&gt;&lt;/div&gt;" style="text;html=1;align=center;verticalAlign=middle;resizable=0;points=[];autosize=1;" vertex="1" parent="1">
          <mxGeometry x="143" y="151" width="130" height="20" as="geometry" />
        </mxCell>
      </root>
    </mxGraphModel>
  </diagram>
</mxfile>
